<svg xmlns="http://www.w3.org/2000/svg" viewBox="0 0 800 500"><rect width="800" height="500" fill="#1a1a1a"/><g transform="translate(50,50)"><rect width="300" height="150" x="0" y="0" fill="#1a2d3d" stroke="#64b5f6" stroke-width="2" rx="10"/><text x="150" y="30" fill="#64b5f6" font-family="Arial" font-size="16" font-weight="bold" text-anchor="middle">Data Capitalization Opportunity</text><text x="150" y="60" fill="#e0e0e0" font-family="Arial" font-size="12" text-anchor="middle"><tspan x="150" dy="0">Transform digital footprints into assets</tspan> <tspan x="150" dy="20">Personal data as capital</tspan> <tspan x="150" dy="20">Enterprise knowledge valuation</tspan> <tspan x="150" dy="20">New form of wealth creation</tspan></text><rect width="300" height="150" x="0" y="200" fill="#1a2d1a" stroke="#81c784" stroke-width="2" rx="10"/><text x="150" y="230" fill="#81c784" font-family="Arial" font-size="16" font-weight="bold" text-anchor="middle">Authentic Data Potential</text><text x="150" y="260" fill="#e0e0e0" font-family="Arial" font-size="12" text-anchor="middle"><tspan x="150" dy="0">Vast reservoir of real insights</tspan> <tspan x="150" dy="20">Enhanced AI development</tspan> <tspan x="150" dy="20">Diverse human knowledge</tspan> <tspan x="150" dy="20">Willing participation model</tspan></text></g><g transform="translate(450,50)"><rect width="300" height="100" x="0" y="0" fill="#2d1a2d" stroke="#ce93d8" stroke-width="2" rx="10"/><text x="150" y="35" fill="#ce93d8" font-family="Arial" font-size="16" font-weight="bold" text-anchor="middle">1. Open-Source Foundation</text><text x="150" y="65" fill="#e0e0e0" font-family="Arial" font-size="12" text-anchor="middle">Data extraction engine &amp; community development</text><rect width="300" height="100" x="0" y="125" fill="#2d1a2d" stroke="#ce93d8" stroke-width="2" rx="10"/><text x="150" y="160" fill="#ce93d8" font-family="Arial" font-size="16" font-weight="bold" text-anchor="middle">2. Data Capitalization Platform</text><text x="150" y="190" fill="#e0e0e0" font-family="Arial" font-size="12" text-anchor="middle">Tools to structure &amp; value digital assets</text><rect width="300" height="100" x="0" y="250" fill="#2d1a2d" stroke="#ce93d8" stroke-width="2" rx="10"/><text x="150" y="285" fill="#ce93d8" font-family="Arial" font-size="16" font-weight="bold" text-anchor="middle">3. Shared Data Marketplace</text><text x="150" y="315" fill="#e0e0e0" font-family="Arial" font-size="12" text-anchor="middle">Economic platform for data exchange</text></g><g><path stroke="#666" stroke-width="2" marker-end="url(#arrowhead)" d="M-20,0 L40,0" transform="translate(400,125)"/><path stroke="#666" stroke-width="2" marker-end="url(#arrowhead)" d="M-20,200 L40,200" transform="translate(400,125)"/></g><defs><marker id="arrowhead" markerHeight="7" markerWidth="10" orient="auto" refX="9" refY="3.5"><polygon fill="#666" points="0 0 10 3.5 0 7"/></marker></defs><g transform="translate(200,420)"><rect width="400" height="60" x="0" y="0" fill="#2d2613" stroke="#ffd54f" stroke-width="2" rx="10"/><text x="200" y="35" fill="#ffd54f" font-family="Arial" font-size="16" font-weight="bold" text-anchor="middle">Economic Vision: Shared Data Economy</text></g></svg>